# WaveFront *.obj file (generated by Autodesk ATF)

mtllib 900da842-ba2e-4fdc-84d5-6e3a0aeada5e.mtl

g Body4

v 0.146884 15.000000 2.718484
v 0.146884 0.000000 2.718484
v -23.492349 0.000000 58.409028
v -23.492349 15.000000 58.409028
v -17.919892 0.000000 60.457913
v -12.173442 0.000000 61.950735
v -6.308340 0.000000 62.873119
v -0.381071 0.000000 63.216181
v 5.551282 0.000000 62.976616
v 11.431589 0.000000 62.156733
v 17.203217 0.000000 60.764427
v 22.810583 0.000000 58.813107
v 22.810583 15.000000 58.813107
v 17.203217 15.000000 60.764427
v 11.431589 15.000000 62.156733
v 5.551282 15.000000 62.976616
v -0.381071 15.000000 63.216181
v -6.308340 15.000000 62.873119
v -12.173442 15.000000 61.950735
v -17.919892 15.000000 60.457913
vt -4.277996 -0.750000 0.000000
vt 1.772004 -0.750000 0.000000
vt -4.277996 0.750000 0.000000
vt 1.772004 0.750000 0.000000
vt -0.000000 -14.254977 0.000000
vt -0.000000 -13.661019 0.000000
vt -1.500000 -14.254977 0.000000
vt -1.500000 -13.661019 0.000000
vt -0.000000 -13.067062 0.000000
vt -1.500000 -13.067062 0.000000
vt -0.000000 -12.473105 0.000000
vt -1.500000 -12.473105 0.000000
vt -0.000000 -11.879147 0.000000
vt -1.500000 -11.879147 0.000000
vt -0.000000 -11.285190 0.000000
vt -1.500000 -11.285190 0.000000
vt -0.000000 -10.691232 0.000000
vt -1.500000 -10.691232 0.000000
vt -0.000000 -10.097275 0.000000
vt -1.500000 -10.097275 0.000000
vt -0.000000 -9.503318 0.000000
vt -1.500000 -9.503318 0.000000
vt 4.277996 -4.277996 0.000000
vt -0.000000 0.000000 0.000000
vt 3.838079 -4.676713 0.000000
vt 3.361200 -5.030391 0.000000
vt 2.851950 -5.335624 0.000000
vt 2.315235 -5.589471 0.000000
vt 1.756222 -5.789489 0.000000
vt 1.180296 -5.933751 0.000000
vt 0.593004 -6.020868 0.000000
vt -0.000000 -6.050000 0.000000
vt 0.000000 0.750000 0.000000
vt -6.050000 0.750000 0.000000
vt -0.000000 -0.750000 0.000000
vt -6.050000 -0.750000 0.000000
vt -4.277996 -4.277996 0.000000
vt -3.838079 -4.676713 0.000000
vt 0.000000 0.000000 0.000000
vt -3.361200 -5.030391 0.000000
vt -2.851950 -5.335624 0.000000
vt -2.315235 -5.589471 0.000000
vt -1.756222 -5.789489 0.000000
vt -1.180296 -5.933751 0.000000
vt -0.593004 -6.020868 0.000000
vt 0.000000 -6.050000 0.000000
vn -0.092050 0.000000 -0.039073
vn -0.092050 0.000000 -0.039073
vn -0.092050 0.000000 -0.039073
vn -0.092050 0.000000 -0.039073
vn -0.039073 0.000000 0.092050
vn -0.029862 0.000000 0.095437
vn -0.039073 0.000000 0.092050
vn -0.029862 0.000000 0.095437
vn -0.020364 0.000000 0.097905
vn -0.020364 0.000000 0.097905
vn -0.010670 0.000000 0.099429
vn -0.010670 0.000000 0.099429
vn -0.000873 0.000000 0.099996
vn -0.000873 0.000000 0.099996
vn 0.008933 -0.000000 0.099600
vn 0.008933 -0.000000 0.099600
vn 0.018652 -0.000000 0.098245
vn 0.018652 -0.000000 0.098245
vn 0.028192 -0.000000 0.095944
vn 0.028192 -0.000000 0.095944
vn 0.037461 -0.000000 0.092718
vn 0.037461 -0.000000 0.092718
vn 0.000000 -0.100000 0.000000
vn 0.000000 -0.100000 0.000000
vn 0.000000 -0.100000 0.000000
vn 0.000000 -0.100000 0.000000
vn 0.000000 -0.100000 0.000000
vn 0.000000 -0.100000 0.000000
vn 0.000000 -0.100000 0.000000
vn 0.000000 -0.100000 0.000000
vn 0.000000 -0.100000 0.000000
vn 0.000000 -0.100000 0.000000
vn 0.092718 0.000000 -0.037461
vn 0.092718 0.000000 -0.037461
vn 0.092718 0.000000 -0.037461
vn 0.092718 0.000000 -0.037461
vn 0.000000 0.100000 0.000000
vn 0.000000 0.100000 0.000000
vn 0.000000 0.100000 0.000000
vn 0.000000 0.100000 0.000000
vn 0.000000 0.100000 0.000000
vn 0.000000 0.100000 0.000000
vn 0.000000 0.100000 0.000000
vn 0.000000 0.100000 0.000000
vn 0.000000 0.100000 0.000000
vn 0.000000 0.100000 0.000000
usemtl Steel_-_Satin
f 2/1/1 3/2/2 1/3/3
f 1/3/3 3/2/2 4/4/4
f 3/5/5 5/6/6 4/7/7
f 4/7/7 5/6/6 20/8/8
f 20/8/8 5/6/6 6/9/9
f 20/8/8 6/9/9 19/10/10
f 19/10/10 6/9/9 7/11/11
f 19/10/10 7/11/11 18/12/12
f 18/12/12 7/11/11 8/13/13
f 18/12/12 8/13/13 17/14/14
f 17/14/14 8/13/13 9/15/15
f 17/14/14 9/15/15 16/16/16
f 16/16/16 9/15/15 10/17/17
f 16/16/16 10/17/17 15/18/18
f 15/18/18 10/17/17 11/19/19
f 15/18/18 11/19/19 14/20/20
f 14/20/20 11/19/19 12/21/21
f 14/20/20 12/21/21 13/22/22
f 3/23/23 2/24/24 5/25/25
f 5/25/25 2/24/24 6/26/26
f 6/26/26 2/24/24 7/27/27
f 7/27/27 2/24/24 8/28/28
f 8/28/28 2/24/24 9/29/29
f 9/29/29 2/24/24 10/30/30
f 10/30/30 2/24/24 11/31/31
f 11/31/31 2/24/24 12/32/32
f 1/33/33 13/34/34 2/35/35
f 2/35/35 13/34/34 12/36/36
f 4/37/37 20/38/38 1/39/39
f 1/39/39 20/38/38 19/40/40
f 1/39/39 19/40/40 18/41/41
f 18/41/41 17/42/42 1/39/39
f 1/39/39 17/42/42 16/43/43
f 1/39/39 16/43/43 15/44/44
f 15/44/44 14/45/45 1/39/39
f 1/39/39 14/45/45 13/46/46

# 20 vertices
# 46 texture params
# 46 normals
# 36 facets

# 1 groups
